/* XPM */
static char * collectible_xpm[] = {
"64 64 5 1",
" 	c None",
".	c #008CC7",
"+	c #244F81",
"@	c #017A81",
"#	c #1EAEE0",
"                                                                ",
"                                                                ",
"                                                                ",
"                                                                ",
"                        ................                        ",
"                        ................                        ",
"                    ..........++++++........                    ",
"                    ..........++++++........                    ",
"                ........++++++++++++++++++......                ",
"                ........++++++++++++++++++......                ",
"              ......++++++@@@@++++++++++++++++....              ",
"              ......++++++@@@@++++++++++++++++....              ",
"            ..++++++++++++++++++++++++++++++++++++..            ",
"            ..++++++++++++++++++++++++++++++++++++..            ",
"          @@++@@@@++@@@@++++++++##..++++####++++..++++          ",
"          @@++@@@@++@@@@++++++++##..++++####++++..++++          ",
"        @@@@@@@@@@@@@@++++######..++++++++..####++++++++        ",
"        @@@@@@@@@@@@@@++++######..++++++++..####++++++++        ",
"        @@@@@@@@@@@@++######..@@++++++@@++++@@@@++++++@@        ",
"        @@@@@@@@@@@@++######..@@++++++@@++++@@@@++++++@@        ",
"      @@@@@@####@@@@##..++++@@@@@@++@@@@@@@@@@++++++##..@@      ",
"      @@@@@@####@@@@##..++++@@@@@@++@@@@@@@@@@++++++##..@@      ",
"      @@@@@@@@@@@@++++++++@@++@@@@@@######@@@@@@@@##..@@@@      ",
"      @@@@@@@@@@@@++++++++@@++@@@@@@######@@@@@@@@##..@@@@      ",
"    @@@@@@@@@@@@@@++++++++++++@@@@####....##@@@@##@@@@@@@@++    ",
"    @@@@@@@@@@@@@@++++++++++++@@@@####....##@@@@##@@@@@@@@++    ",
"    ++@@..##@@++++++++++++++++@@####@@@@....####@@@@@@@@++++    ",
"    ++@@..##@@++++++++++++++++@@####@@@@....####@@@@@@@@++++    ",
"    ++@@@@@@##++++..##++##++######@@@@@@@@@@@@####@@++++++##    ",
"    ++@@@@@@##++++..##++##++######@@@@@@@@@@@@####@@++++++##    ",
"    ++@@@@++++++####++##++@@@@@@@@@@@@@@@@@@@@@@@@@@++@@##++    ",
"    ++@@@@++++++####++##++@@@@@@@@@@@@@@@@@@@@@@@@@@++@@##++    ",
"    ++@@@@++++++++++++++++++++++@@@@@@@@@@@@@@@@@@##..@@@@++    ",
"    ++@@@@++++++++++++++++++++++@@@@@@@@@@@@@@@@@@##..@@@@++    ",
"    ++++@@..@@++++++++++++++++..####@@@@##..++####@@++@@++++    ",
"    ++++@@..@@++++++++++++++++..####@@@@##..++####@@++@@++++    ",
"    ++++@@@@##@@####++++####++++++######++++++++@@@@++++++++    ",
"    ++++@@@@##@@####++++####++++++######++++++++@@@@++++++++    ",
"      ++@@@@@@@@@@++####..####@@@@@@@@@@++++++++@@@@++++++      ",
"      ++@@@@@@@@@@++####..####@@@@@@@@@@++++++++@@@@++++++      ",
"      @@@@....@@######++++++####..@@@@@@++++++++++@@##++++      ",
"      @@@@....@@######++++++####..@@@@@@++++++++++@@##++++      ",
"        @@@@@@##..@@++++++++@@@@@@####..++##++++####++++        ",
"        @@@@@@##..@@++++++++@@@@@@####..++##++++####++++        ",
"        @@@@@@@@@@@@++++++++@@######@@++##++++####@@++++        ",
"        @@@@@@@@@@@@++++++++@@######@@++##++++####@@++++        ",
"          @@@@@@@@@@++++++..####..@@@@++++++++++@@++++          ",
"          @@@@@@@@@@++++++..####..@@@@++++++++++@@++++          ",
"            @@@@@@++++++++++++@@@@@@++++++++++@@++++            ",
"            @@@@@@++++++++++++@@@@@@++++++++++@@++++            ",
"              ..@@++++++++++++++@@@@..##++++++++..              ",
"              ..@@++++++++++++++@@@@..##++++++++..              ",
"                ....++++++++++++..####++++++....                ",
"                ....++++++++++++..####++++++....                ",
"                    ......++++++++@@++......                    ",
"                    ......++++++++@@++......                    ",
"                        ................                        ",
"                        ................                        ",
"                                                                ",
"                                                                ",
"                                                                ",
"                                                                ",
"                                                                ",
"                                                                "};
