/* XPM */
static char * exit_xpm[] = {
"64 64 8 1",
" 	c None",
".	c #252B43",
"+	c #5B6986",
"@	c #8B9BB5",
"#	c #3A4467",
"$	c #C0CCDC",
"%	c #ECF0F1",
"&	c #F77622",
"                                                                ",
"                                                                ",
"                                                                ",
"                                                                ",
"                                                                ",
"                                                                ",
"          ............................................          ",
"          ............................................          ",
"          ..++++++++++++++++++++++++++++++++++++++++..          ",
"          ..++++++++++++++++++++++++++++++++++++++++..          ",
"          ..++@@++++++++++++++++++++++++++++++++++++..          ",
"          ..++@@++++++++++++++++++++++++++++++++++++..          ",
"          ..++++++++++@@@@@@@@@@@@@@@@@@@@@@@@@@++++..          ",
"          ..++++++++++@@@@@@@@@@@@@@@@@@@@@@@@@@++++..          ",
"          ..++@@++######################$$$$$$$$++++..          ",
"          ..++@@++######################$$$$$$$$++++..          ",
"          ..++++++%%%%%%%%%%%%%%%%%%%%%%$$$$$$$$++++..          ",
"          ..++++++%%%%%%%%%%%%%%%%%%%%%%$$$$$$$$++++..          ",
"          ..++++++%%&&%%&&%%&&%%%%%%%%%%$$$$$$$$++++..          ",
"          ..++++++%%&&%%&&%%&&%%%%%%%%%%$$$$$$$$++++..          ",
"          ..++++++%%%%%%%%%%%%%%%%%%%%%%$$$$$$$$++++..          ",
"          ..++++++%%%%%%%%%%%%%%%%%%%%%%$$$$$$$$++++..          ",
"          ..++++++%%%%%%%%%%%%%%%%%%%%%%$$$$$$$$++++..          ",
"          ..++++++%%%%%%%%%%%%%%%%%%%%%%$$$$$$$$++++..          ",
"          ..++++++++++@@@@@@@@@@@@@@@@$$$$$$$$$$++++..          ",
"          ..++++++++++@@@@@@@@@@@@@@@@$$$$$$$$$$++++..          ",
"          ..++++++++++$$$$$$$$$$$$$$$$$$$$$$$$$$++++..          ",
"          ..++++++++++$$$$$$$$$$$$$$$$$$$$$$$$$$++++..          ",
"          ..++++++++++++++++++++++++++++++++++++++++..          ",
"          ..++++++++++++++++++++++++++++++++++++++++..          ",
"          ..++++++++++++++++++++++++++++++++++++++++..          ",
"          ..++++++++++++++++++++++++++++++++++++++++..          ",
"          ............................................          ",
"          ............................................          ",
"          ############################################          ",
"          ############################################          ",
"          ##....##....####..########..##..##........##          ",
"          ##....##....####..########..##..##........##          ",
"          ##..##..####....##........##..##..######..##          ",
"          ##..##..####....##........##..##..######..##          ",
"          ########....##..##############..##..##..####          ",
"          ########....##..##############..##..##..####          ",
"          ##..##..####..................##..........##          ",
"          ##..##..####..................##..........##          ",
"          ############################################          ",
"          ############################################          ",
"          ############################################          ",
"          ############################################          ",
"          ################............################          ",
"          ################............################          ",
"          ################............################          ",
"          ################............################          ",
"          ################............################          ",
"          ################............################          ",
"          ............................................          ",
"          ............................................          ",
"                                                                ",
"                                                                ",
"                                                                ",
"                                                                ",
"                                                                ",
"                                                                ",
"                                                                ",
"                                                                "};
