/* XPM */
static char * player_xpm[] = {
"64 64 4 1",
" 	c None",
".	c #B9704F",
"+	c #EBD4AB",
"@	c #733D3A",
"                                                                ",
"                                                                ",
"                                                                ",
"                                                                ",
"                                                                ",
"                                                                ",
"                              ......                            ",
"                              ......                            ",
"                          ....++++++....                        ",
"                          ....++++++....                        ",
"                      ....++++++++++++++....                    ",
"                      ....++++++++++++++....                    ",
"                    ..++++++++++++++++++++++..                  ",
"                    ..++++++++++++++++++++++..                  ",
"                  ..++++++++++++++++++++++++++..                ",
"                  ..++++++++++++++++++++++++++..                ",
"                  ..++++++++++++++++++++++++++..                ",
"                  ..++++++++++++++++++++++++++..                ",
"                  ..++++++++++++++++++++++++++..                ",
"                  ..++++++++++++++++++++++++++..                ",
"                ..++++..++++++++++++++++++..++++..              ",
"                ..++++..++++++++++++++++++..++++..              ",
"                ..++++..++++++++++++++++++..++++..              ",
"                ..++++..++++++++++++++++++..++++..              ",
"                ..++..++++++++++++++++++++++..++..              ",
"                ..++..++++++++++++++++++++++..++..              ",
"                ..++++++@@@@@@++++++@@@@@@++++++..              ",
"                ..++++++@@@@@@++++++@@@@@@++++++..              ",
"                ..++++@@@@@@@@++++++@@@@@@@@++++..              ",
"                ..++++@@@@@@@@++++++@@@@@@@@++++..              ",
"                ..++++@@@@@@@@++@@++@@@@@@@@++++..              ",
"                ..++++@@@@@@@@++@@++@@@@@@@@++++..              ",
"                  ..++@@@@@@++++@@++++@@@@@@++..                ",
"                  ..++@@@@@@++++@@++++@@@@@@++..                ",
"                ..++++++++++++@@@@@@++++++++++++..              ",
"                ..++++++++++++@@@@@@++++++++++++..              ",
"                  ..++++++++++@@++@@++++++++++..                ",
"                  ..++++++++++@@++@@++++++++++..                ",
"                    ......++++++++++++++......                  ",
"                    ......++++++++++++++......                  ",
"                    ..++..++++++++++++++..++..                  ",
"                    ..++..++++++++++++++..++..                  ",
"                    ..++..++++++++++++++..++..                  ",
"                    ..++..++++++++++++++..++..                  ",
"                    ..++++....++++++....++++..                  ",
"                    ..++++....++++++....++++..                  ",
"                    ..++..++++......++++..++..                  ",
"                    ..++..++++......++++..++..                  ",
"                      ..++++..++++++..++++..                    ",
"                      ..++++..++++++..++++..                    ",
"                        ..++++++++++++++..                      ",
"                        ..++++++++++++++..                      ",
"                        ..++++++++++++++..                      ",
"                        ..++++++++++++++..                      ",
"                          ..++++++++++..                        ",
"                          ..++++++++++..                        ",
"                            ..........                          ",
"                            ..........                          ",
"                                                                ",
"                                                                ",
"                                                                ",
"                                                                ",
"                                                                ",
"                                                                "};
