/* XPM */
static char * wall_xpm[] = {
"64 64 25 1",
" 	c #F57275",
".	c #A22633",
"+	c #AF3230",
"@	c #FEAE34",
"#	c #3E8948",
"$	c #BE4831",
"%	c #6A3A6A",
"&	c #3A4466",
"*	c #377530",
"=	c #0B6FAE",
"-	c #13508D",
";	c #4F374D",
">	c #CF3234",
",	c #504F51",
"'	c #3E4869",
")	c #BE4A2F",
"!	c #D1562E",
"~	c #363648",
"{	c #3D4A51",
"]	c #265C42",
"^	c #F67522",
"/	c #E43B44",
"(	c #0099DB",
"_	c #ECF0F1",
":	c #C0CBDC",
"    ..++    ..++    ..++    ..++@@@@..##@@@@..##@@@@..##@@@@..##",
"    ..++    ..++    ..++    ..++@@@@..##@@@@..##@@@@..##@@@@..##",
"$$++%%&&$$++%%&&$$++%%&&$$++%%&&##**==--##**==--##**==--##**==--",
"$$++%%&&$$++%%&&$$++%%&&$$++%%&&##**==--##**==--##**==--##**==--",
"++$$&&;;>>$$&&,,>>$$&&;;++$$'',,**##--==**##--==**##--==**##--==",
"++$$&&;;>>$$&&,,>>$$&&;;++$$'',,**##--==**##--==**##--==**##--==",
"    >>..    ++..    ++..    ++..@@@@##..@@@@##..@@@@##..@@@@##..",
"    >>..    ++..    ++..    ++..@@@@##..@@@@##..@@@@##..@@@@##..",
"    ..++    ..++    ..++    ..>>@@@@..##@@@@..##@@@@..##@@@@..##",
"    ..++    ..++    ..++    ..>>@@@@..##@@@@..##@@@@..##@@@@..##",
"$$>>%%&&))++%%&&$$>>%%&&$$++%%&&##**==--##**==--##**==--##**==--",
"$$>>%%&&))++%%&&$$>>%%&&$$++%%&&##**==--##**==--##**==--##**==--",
"++$$&&,,++$$&&;;++$$&&,,++$$&&;;**##--==**##--==**##--==**##--==",
"++$$&&,,++$$&&;;++$$&&,,++$$&&;;**##--==**##--==**##--==**##--==",
"    ++..    ++..    ++..    ++..@@@@##..@@@@##..@@@@##..@@@@##..",
"    ++..    ++..    ++..    ++..@@@@##..@@@@##..@@@@##..@@@@##..",
"    ..>>    ..++    ..++    ..>>@@@@..##@@@@..##@@@@..##@@@@..##",
"    ..>>    ..++    ..++    ..>>@@@@..##@@@@..##@@@@..##@@@@..##",
"$$++%%&&!!>>%%&&!!>>%%&&$$++%%&&##**==--##**==--##**==--##**==--",
"$$++%%&&!!>>%%&&!!>>%%&&$$++%%&&##**==--##**==--##**==--##**==--",
"++$$&&,,++$$&&,,>>$$&&~~++$$'',,**##--==**##--==**##--==**##--==",
"++$$&&,,++$$&&,,>>$$&&~~++$$'',,**##--==**##--==**##--==**##--==",
"    ++..    ++..    ++..    ++..@@@@##..@@@@##..@@@@##..@@@@##..",
"    ++..    ++..    ++..    ++..@@@@##..@@@@##..@@@@##..@@@@##..",
"    ..++    ..++    ..++    ..++@@@@..##@@@@..##@@@@..##@@@@..##",
"    ..++    ..++    ..++    ..++@@@@..##@@@@..##@@@@..##@@@@..##",
"$$>>%%&&$$++%%&&$$++%%&&))++%%&&##**==--##**==--##**==--##**==--",
"$$>>%%&&$$++%%&&$$++%%&&))++%%&&##**==--##**==--##**==--##**==--",
"++!!&&~~++$$'',,++$$&&{{++))&&,,**##--==**##--==**##--==**##--==",
"++!!&&~~++$$'',,++$$&&{{++))&&,,**##--==**##--==**##--==**##--==",
"    ++..    >>..    ++..    ++..@@@@##..@@@@##..@@@@##..@@@@##..",
"    ++..    >>..    ++..    ++..@@@@##..@@@@##..@@@@##..@@@@##..",
"]]^^^^......//////......^^^^]]]]========((((((((========((((((((",
"]]^^^^......//////......^^^^]]]]========((((((((========((((((((",
"]]^^//^^......//......^^//^^]]@@========((((((((========((((((((",
"]]^^//^^......//......^^//^^]]@@========((((((((========((((((((",
"@@^^////^^..........^^////^^@@]]__======((((((((__======((((((((",
"@@^^////^^..........^^////^^@@]]__======((((((((__======((((((((",
"]]^^//^^......@@......^^//^^]]@@____====((((((::____====((((((::",
"]]^^//^^......@@......^^//^^]]@@____====((((((::____====((((((::",
"]]^^^^......@@..@@......^^^^]]]]______==((((::::______==((((::::",
"]]^^^^......@@..@@......^^^^]]]]______==((((::::______==((((::::",
"]]^^......@@..@@..@@......^^]]]]________((::::::________((::::::",
"]]^^......@@..@@..@@......^^]]]]________((::::::________((::::::",
"]]^^....@@..@@^^@@..@@....^^]]]]________::::::::________::::::::",
"]]^^....@@..@@^^@@..@@....^^]]]]________::::::::________::::::::",
"]]^^..@@..@@^^^^^^@@..@@..^^]]@@________::::::::________::::::::",
"]]^^..@@..@@^^^^^^@@..@@..^^]]@@________::::::::________::::::::",
"@@^^^^..@@^^^^^^^^^^@@..^^^^@@]]________::::::::________::::::::",
"@@^^^^..@@^^^^^^^^^^@@..^^^^@@]]________::::::::________::::::::",
"]]^^..@@..@@^^^^^^@@..@@..^^]]@@________::::::::________::::::::",
"]]^^..@@..@@^^^^^^@@..@@..^^]]@@________::::::::________::::::::",
"]]^^....@@..@@^^@@..@@....^^]]]]________((::::::________((::::::",
"]]^^....@@..@@^^@@..@@....^^]]]]________((::::::________((::::::",
"]]^^......@@..@@..@@......^^]]]]______==((((::::______==((((::::",
"]]^^......@@..@@..@@......^^]]]]______==((((::::______==((((::::",
"]]^^^^......@@..@@......^^^^]]]]____====((((((::____====((((((::",
"]]^^^^......@@..@@......^^^^]]]]____====((((((::____====((((((::",
"]]^^//^^......@@......^^//^^]]@@__======((((((((__======((((((((",
"]]^^//^^......@@......^^//^^]]@@__======((((((((__======((((((((",
"@@^^////^^..........^^////^^@@]]========((((((((========((((((((",
"@@^^////^^..........^^////^^@@]]========((((((((========((((((((",
"]]^^//^^......//......^^//^^]]@@========((((((((========((((((((",
"]]^^//^^......//......^^//^^]]@@========((((((((========(((((((("};
