/* XPM */
static char * 1flowers_xpm[] = {
"64 64 8 1",
" 	c #36A836",
".	c #55FF55",
"+	c #FAC600",
"@	c #FFDD5B",
"#	c #DB9232",
"$	c #3F2832",
"%	c #327345",
"&	c #193D3F",
" ... ...............   ........ ............... . ............. ",
". . ............... ....... ...      ........... .......    ....",
".. .......... ....  ....... ...   ..++.++... ...... ... ... ... ",
"..   ....++.++... .. ...  .. . .....+@+@@... ....... . .  .. . .",
". .......+@+@@ .   .. . ..... ....@#@$@# ...      ...++ ++... ..",
" ......@#@$@#.  ...... ... ..... .++$$$@+...   ... . +@+@@...   ",
" ....  ++$$$@+............ .   .. .+#$+@@ . .......@#@$@#... ...",
" ... ...+#$+@@.. ... .....  .   ..%@++#+.. ..... ..++$$$@+. ....",
". . ....@++#+.... . ......   ..%%%%++.+@ .   .... . +#$+@@  ....",
".. ...%%++%+@ ....    ... .......&.%% ... ........ %@++#+ .. ...",
"..... ..& %%. ... .... . .... ...&.. ... .......%%%%++ +@.... . ",
"...... .&.  .. . ...... ......   .  ...  .......  & %%.   .... .",
"..  ... . ..... ...............  . . . .. ...   . &  . .........",
".... . . ......   ...............  .. .... . ....   . .. ... . .",
"..... ........ ..................... ....    ..  ... . .. . .. .",
".. ... ...... ....... ....   ....... ..  .... . . . ... ..   .. ",
"... . .++.++  ....... ... ..   ..  .. . . .... ..   .... . .....",
".... ..+@+@@.. ...  .. . .. ..++ ++...   .   ...  ....... ..... ",
"... .@#@$@#.... . ..... .. ...+@+@@....  ++.++. . .. .........  ",
"... .++$$$@+.... ...  ... ..@#@$@#.......+@+@@  ..   ......... .",
"  .. .+#$+@@.......... .  ..++$$$@+....@#@$@#    ..... .  ..  ..",
".....%@++#+... . ....   .. . +#$+@@....++$$$@+.....    ..    .. ",
"..%%%%++ +@ . .. ... ...... .@++#+..   .+#$+@@.... . .++.++ ....",
"....&.%%. ..   .. . .........++%+@. .. %@++#+.... .. .+@+@@   ..",
"... & .... . ..... ...........%%%. .%%%%++.+ ...   ..#@$@# . ...",
".. ........ ......   .......  ... ....&.%%...    . ..+$$$@+  .. ",
". ............... ............ . .....&.......  ...  +#$+@@. .  ",
" .... ... ...... ....... ....   .......... ...... .. @++#+... ..",
"   ... . .  ...  ....... ......   ........ ..........++%+@ . ...",
"....... .... . .. ..++ ++ . ...... ...          .. ..%%.... ....",
"...... ....   .... .+@+@@. ..  ... ... ...   .. . ..... ........",
"...... ... ..   ..@#@$@# ..  ..  ..   . . ...... ...... ........",
"...  .. . .. .....++$$$@+.. .  . . . ... ...... ++.++..      ...",
" . ..... .. . ... .+#$+@@  .. ... ... . ... ... +@+@@..   ......",
". ...  ...  .. .   @++#+............. .   ..  @#@$@# . .........",
"... ... .++ ++. .%%++.+ ... ... ++.++  .    . ++$$$@+ ..........",
".... ... +@+@@ ....&%%%..... . .+@+@@   ...... +#$+@@.......... ",
"..... .@#@$@# .....&.    .... @#@$@# ..........@++#+........... ",
"...... ++$$$@+.. ... ... ... .++$$$@+... ... %%++.+@....... ... ",
"........+#$+@@... . .  .. . ...+#$+@@....   .  &%%% ....... ..  ",
" ... ..%@++#+  ... . ..... ...%@++#+......  . .&.... ...  ..   .",
". . %%%%++.+@.. . . .......%%%%++.+@........  ....... . ....  ..",
".. ...&.%%...... ............&.%%.............. ....    ... ....",
"......&.....++.++ ...........&.. ....   ....... ... .... . .....",
"............+@+@@....... ....... ... ... ...  .. . . .... ......",
"..........@#@$@#......... ...  .. . ..... . ..... . ........ ...",
"..........++$$$@+..   .... . ..... ....... ....... . ....... ...",
"...... ....+#$+@@. ........ ......................... ...  .. . ",
"....... ..%@++#+. .................. ... ............. . .....  ",
".   ...%%%%++.+@ .... ... . ....   .. . ......++.++.... ........",
" ........&.%%...... .++.++. ... ...... .......+@+@@.............",
".........&.......... +@+@@.. . .............@#@$@#... ..........",
"... ... . ....   ..@#@$@#.... ..............++$$$@+. ....... ...",
". .. . .. ... .....++$$$@+...................+#$+@@ ......... ..",
".. ..   .. . .......+#$+@@..................%@++#+............ .",
"... . ..... .... .%.@++#+.......... .... %%%%++.+@............. ",
".... ............ .%++.+@.. ....... ... ...&%%%.................",
".................. .&%%%.... ...  .. . ....&. ....   .... ... ..",
".. .............. ..&.   .... . ..... ....... ... ........ . ...",
". ....... ....... ... ........ ....... ...  .. . .......... ....",
" ......... ...  .. . .................. . ..... .......... .... ",
"........... . ..... .... ... ........... ......... ....... ... .",
"............ ............ . ....................... ...  .. . ..",
".......................... ....... ... ............. . ..... ..."};
