/* XPM */
static char * 3cb_xpm[] = {
"64 64 13 1",
" 	c #55FF55",
".	c #36A836",
"+	c #FAC600",
"@	c #FFDD5B",
"#	c #DB9232",
"$	c #3F2832",
"%	c #327345",
"&	c #193D3F",
"*	c #000000",
"=	c #FF99CC",
"-	c #FF3399",
";	c #FFFFFF",
">	c #FFFF00",
"  ..   .               ...        .               . .           ",
"    . .               .       .   ......           .       .... ",
"  .  .          .    ..       .   ...++ ++     .      .   .   . ",
" .   ...  ++ ++..   .  .   ..  . .   +@+@@     .       . . ..  .",
".   .     +@+@@ .. ...  . .     .  @#@$@#  .   ...... ++.++     ",
"....    @#@$@#   ..      .   .     ++$$$@+ .   ...   .+@+@@     ",
"   .    ++$$$@+              . ...  +#$+@@  . .     @#@$@#     .",
"   .   . +#$+@@    .   .     .. ... @++#+    .     .++$$$@+   . ",
"    . .  @++#+      . .      ...  %%++.+@... ...    .+#$+@@  .. ",
"     .   ++&+@...    ....   .       & %%.   .        @++#+. .  .",
". .     .  &.%% .   .    . .    .   &  .   .       %%++.+@..    ",
" .       . & ..  . .      .      ... ..   ..       ..&.%% ...   ",
"     ..   . .     .               .. . . .  .   ... .&.. .      ",
" .     . . .      ...               ..  .    . .    ... .  .   .",
" .      .        .                     .    ....  ..   . .  . . ",
"  .  .   .      .       .    ...       .  ..    . . . .   .  ...",
"      . ++.++  ..       .   .  ...  ..  . . .    .  ...    . .  ",
"  .    .+@+@@ .  .   ..  . .  .++.++     ... ...   ..       .   ",
" ..   @#@$@#..    . .     .******+@@      ++.++   . .  .        ",
" .    ++$$$@+      .   .***======******   +@+@@  ..  ...        ",
".  ..  +#$+@@          *==============**@#@$@#. ....     . ..  .",
"  .    @++#+ .   . . **================**+$$$@+.      ....  ....",
"     %%++ +@  . .  .*====================*#$+@@      . ++ ++... ",
".      & %% .  ... *======================*+#+      .  +@+@@  ..",
"      .&.    . .  *================*===*==* + ..   ...#@$@#  . .",
"  .  .        .    *===*====*===*===***====*%   .... .+$$$@+. ..",
" .. .              *===*****=====*==========*    ..   +#$+@@.  .",
".  .    .   .     *==============*==========*.      . @++#+..   ",
"   ...   . . ..   *=============*============*        ++%+@  . .",
"          .    . *===========================*.....  .  %%    . ",
"         .    ...*===***********=============*..  . .     .     ",
"         .   .  .*==************=***********=*     .      .     ",
"      ..  . .  . *==***********==**********==*   ++ ++..  ......",
"   . .     .  . .*================*******====*.  +@+@@.   ...   ",
"    .   ..   ..  *==================***======* @#@$@#. . .      ",
"      .   ++.++  *========================*===*++$$$@+  .       ",
"  .    .  +@+@@. *====*==================*====* +#$+@@.         ",
"  .     @#@$@#  .*====*==================*====* @++#+           ",
"  .     ++$$$@+  *====**=========*========*===*.++&+@         . ",
" ..      +#$+@@ *======*====*****-**==========* ..&%%%.       . ",
".. .   . @++#+  *==========*--------**========* . &    .   ..  .",
".   . .%%++ +@  *===*======*-*******-*========*..       . .    .",
"     .   & %%    *===*====*-**;*>;*>*-*=======*   .    ....   . ",
"         &   ++ +*====*===*->*;*>;*>*-*======*    .   .    . .  ",
"             +@+@*====*===*->*;*>**>*-*======* ..  . . .    .   ",
"           @#@$@# *=======*->***>>>>*-*=====* .     . .        .",
"           ++$$$@+*=======*->>>>>>>>*-*=====*.       . .       .",
". .      .  +#$+@@*=======*-****>>>*--*=====*           .   ..  ",
" ..       . @++#+ .*======*-----***--*======*            . .    ",
"    ...   %%++ +@  .*======*****----*======*   ++ ++      .     ",
"   .        & %%     ***========****======*    +@+@@            ",
"            &         +@**==============**   @#@$@# .   .       ",
"      .   . .    ...@#@$@#**************     ++$$$@+ . .       .",
".   .  . .  .   .   ++$$$@+                   +#$+@@  .         ",
" .   .  ...  . .     +#$+@@                   @++#+             ",
"  .   . .     .    . @++#+            .    .%%++ +@             ",
"       .            .++&+@    .       .   .   &%%%              ",
".                    . &%%%    .   ..  . .    & .    ...    .   ",
"     .              .  & ...    . .     .       .   .        . .",
"    .       .       .   .        .       .   ..  . .          . ",
"  ..         .   ..  . .                  . .     .          .  ",
" .            . .     .    .   .           .         .       .  ",
".              .            . .                       .   ..  . ",
"                             .       .   .             . .     ."};
