/* XPM */
static char * 3igor_xpm[] = {
"64 64 30 1",
" 	c #55FF55",
".	c #36A836",
"+	c #FAC600",
"@	c #FFDD5B",
"#	c #DB9232",
"$	c #3F2832",
"%	c #327345",
"&	c #193D3F",
"*	c #FFFBDF",
"=	c #FFF392",
"-	c #EFBE56",
";	c #FAECCD",
">	c #FAE380",
",	c #C37964",
"'	c #000000",
")	c #FFFFFF",
"!	c #985745",
"~	c #982809",
"{	c #C9A457",
"]	c #FADB63",
"^	c #FDF7DD",
"/	c #FFCBBA",
"(	c #FFF3F0",
"_	c #E4B3A3",
":	c #FDCBCB",
"<	c #F70A0A",
"[	c #B30707",
"}	c #A5614E",
"|	c #F9EEEB",
"1	c #DEDEDE",
"  ..   .               ...        .               . .           ",
"    . .               .       .   ......           .       .... ",
"  .  .          .    ..       .   ...++ ++     .      .   .   . ",
" .   ...  ++ ++..   .  .   ..  . .   +@+@@     .       . . ..  .",
".   .     +@+@@ .. ...  . .     .  @#@$@#  .   ...... ++.++     ",
"....    @#@$@#   ..      .   .     ++$$$@+ .   ...   .+@+@@     ",
"   .    ++$$$@+              . ...  +#$+@@  . .     @#@$@#     .",
"   .   . +#$+@@    .   .     .. ... @++#+    .     .++$$$@+   . ",
"    . .  @++#+      . .      ...  %%++.+@... ...    .+#$+@@  .. ",
"     .   ++&+@...    ....   .       & %%.   .        @++#+. .  .",
". .     .  &.%% .   .    . .    .   &  .   .       %%++.+@..    ",
" .       . & ..  . .      .      ... ..   ..       ..&.%% ...   ",
"     ..   . .     .               .. . . .  .   ... .&.. .      ",
" .     . . .      ...               ..  .    . .    ... .  .   .",
" .      .        .                     .    ....  ..   . .  . . ",
"  .  .   .      .       .    .****     .  ..    . . . .   .  ...",
"      . ++.++  ..       .   =-----**..  . . .    .  ...    . .  ",
"  .    .+@+@@ .  .   ..  . =-------**    ... ...   ..       .   ",
" ..   @#@$@#..    . .     =---------**    ++.++   . .  .        ",
" .    ++$$$@+      .   ..=----------;**   +@+@@  ..  ...        ",
".  ..  +#$+@@           =-----=>>>>---**@#@$@#. ....     . ..  .",
"  .    @++#+ .   . .   =----========---**+$$$@+.      ....  ....",
"     %%++ +@  . .  .   ---====----===--**+#$+@@      . ++ ++... ",
".      & %% .  ...  . .--===--,,,,--==--=@++#+      .  +@+@@  ..",
"      .&.    . .     . -==-'')),,''))-===++ + ..   ...#@$@#  . .",
"  .  .        .      ..---'''')''''')'--=& %%   .... .+$$$@+. ..",
" .. .               .   ,!,'''''''''),!, &       ..   +#$+@@.  .",
".  .    .   .      .     ,,'''',,'''',,      .      . @++#+..   ",
"   ...   . . ..   ..     ,!,,,,!!,,,,!,      .        ++%+@  . .",
"          .    . .  .++ ++!,,,,,,,,,,!   ..........  .  %%    . ",
"         .    ...    +@+@@!,,,,!!,,,,!   .   ...  . .     .     ",
"         .   .  ...@#@$@# .!,,,~~,,,! ... . .      .      .     ",
"      ..  . .  .   ++$$$@+{{!,,,,,,!]^ .   .     ++ ++..  ......",
"   . .     .  . .   +#$+@///]!!!!!!]//( . .   .  +@+@@.   ...   ",
"    .   ..   ..  . .@++#/_//{]!!!!]{//_:. ...  @#@$@#. . .      ",
"      .   ++.++   . ++&//_////{]]]////_<:. ....++$$$@+  .       ",
"  .    .  +@+@@. .    ////_///{{{{///_/<<:.     +#$+@@.         ",
"  .     @#@$@#  .    //////__//,,//__/_[<<:     @++#+           ",
"  .     ++$$$@+    ._////////__//__///_[<<<:   .++&+@         . ",
" ..      +#$+@@     _//////////__/////_[[<<:... ..&%%%.       . ",
".. .   . @++#+  ..  _///_//////_'/////_/[<<: .. . &    .   ..  .",
".   . .%%++ +@    . _///_//////_'//////_[<<:   ..       . .    .",
"     .   & %%      .__//_//////////////_[[<:      .    ....   . ",
"         &   ++ ++  __//_//////_///////_[[<:      .   .    . .  ",
"             +@+@@ .___/_//////////////[[[<:   ..  . . .    .   ",
"           @#@$@# . _____//////_//////_[[[[[. .     . .        .",
"           ++$$$@+  },},_//////_'/////__}},, .       . .       .",
". .      .  +#$+@@  }},,__//////'//////_}}},            .   ..  ",
" ..       . @++#+ . }}}}___////_///////_,,,,             . .    ",
"    ...   %%++ +@  .    ____///__//////_. .    ++ ++      .     ",
"   .        & %%      ++_______[__////_| .     +@+@@            ",
"            &         +@_____[[[_//_/__|((   @#@$@# .   .       ",
"      .   . .    ...@#[[[___[[< ._//__////(  ++$$$@+ . .       .",
".   .  . .  .   .   +[[[[[[<<<<  __///////(   +#$+@@  .         ",
" .   .  ...  . .     [[[[[[[[<<  _____////(   @++#+             ",
"  .   . .     .    . [[[[[[[[<<[_______////.%%++ +@             ",
"       .            111)),,,,)1111),,,,)))))  &%%%              ",
".                   11111111'''''''')1111)))  & .    ...    .   ",
"     .              ''''''''''''''''''''''''    .   .        . .",
"    .       .       .   .        .       .   ..  . .          . ",
"  ..         .   ..  . .                  . .     .          .  ",
" .            . .     .    .   .           .         .       .  ",
".              .            . .                       .   ..  . ",
"                             .       .   .             . .     ."};
