/* XPM */
static char * 4C_xpm[] = {
"64 64 15 1",
" 	c #36A836",
".	c #55FF55",
"+	c #FAC600",
"@	c #FFDD5B",
"#	c #DB9232",
"$	c #3F2832",
"%	c #327345",
"&	c #193D3F",
"*	c #FFFFFF",
"=	c #D77BBA",
"-	c #AF5994",
";	c #5B6EE1",
">	c #D9A066",
",	c #A5608F",
"'	c #B98754",
"  ... ...............   ........ ............... . .............",
".. . ............... ....... ...      ........... .......    ...",
" .. .......... ....  ....... ...   ..++.++... ...... ... ... ...",
"...   .....++ ++.. .. ...  .. . .....+@+@@... ....... . .  .. . ",
".. ........+@+@@.   .. . ..... ....@#@$@# ...      ...++ ++... .",
"  .......@#@$@#  ...... ... ..... .++$$$@+...   ... . +@+@@...  ",
". ....   ++$$$@+........... .   .. .+#$+@@ . .......@#@$@#... ..",
". ... ....+#$+@@. ... .....  .   ..%@++#+.. ..... ..++$$$@+. ...",
".. . .....@++#+... . ......   ..%%%%++.+@ .   .... . +#$+@@  ...",
"... ...%%&++ +@....    ... .......&.%% ... ........ %@++#+ .. ..",
" ..... ..& %%. ... .... . .... ...&.. ... .......%%%%++ +@.... .",
"....... .&.  .. . ...... ......   .  ...  .......  & %%.   .... ",
"...  ... . ..... ...............  . . . .. ...   . &  . ........",
"..... . . ......   ...............  .. .... . ....   . .. ... . ",
"...... ........ ..................... ....    ..  ... . .. . .. ",
" .. ... ...... ....... ....   ....... ..  .... . . . ... ..   ..",
".... . .++.++  ....... ... ..   ..  .. . . .... ..   .... . ....",
" .... ..+@+@@.. ...  .. . .. .. ++.++..   .   ...  ....... .....",
" ... .@#@$@#.... . ..... .. ....+@+@@...  ++.++. . .. ......... ",
".... .++$$$@+.... ...  ... ...@#@$@#......+@+@@  ..   ......... ",
".  .. .+#$+@@.......... .  ...++$$$@+...@#@$@#    ..... .  ..  .",
" .....%@++#+... . ....   .. . .+#$+@@.*====$$@+.....    ..    ..",
"...%%%%++ +@ . .. ... ...... ..@++=====*---$+@@.... . .++.++ ...",
".....&.%%. ..   .. . .........%++.=====*---+#+.... .. .+@+@@   .",
".... & .... . ..... .......-====;;=====--->.+ ...   ..#@$@# . ..",
" .. ........ ......   .....-===;=======>>>>==;;   . ..+$$$@+  ..",
" . ............... ,,,,;,,,>--====*=========;==- ...  +#$+@@. . ",
". .... ... ...... .,,,,;,,,>--====*=========;==-.. .. @++#+... .",
".   ... . .  ..,,,,=====;;==>>-=**===========-->......++%+@ . ..",
"........ ....,,======*========>-========;;==->>> .. ..%%.... ...",
"....... ...,,=========*====*===>--=====;=====''' . ..... .......",
"....... ...,,=========*====*===>--=====;====='''. ...... .......",
"....  .. . ,,==;;=========*=====>>-=========*==. .++ ++.      ..",
". . ..... ,===;===============;===>-===;===*=====.+@+@@.   .....",
".. ...  ..,=======*='''''======;===>--==;;=====;====@#. ........",
".... ... .>,,====*=='''''==========>---=========;======.........",
" .... ... >,,====*=================>---=========;======.........",
" ..... .@#>>>,====================,'>>>-----===========-........",
" ...... ++'>>>,===='''======;;==,,>'''>>>>>>---======---.... ...",
" ........+#''>>''''''''====;==,,>>>+@@''>>>>>>>-------->.... .. ",
". ... ..%@+''>>''''''''====;==,,>>>#+.''>>>>>>>-------->.  ..   ",
".. . %%%%++''>>>>',,,,'',,,,,,>>>>'+@...'''>>>>>>>>>>>>' ....  .",
"... ...&.%%..'>>>,'''','>>>>>>>>>>'........''''''''''''' ... ...",
".......&.....+'''' ...',>>>>>>>>''....   ....... ... .... . ....",
".............+''''....',>>>>>>>>''... ... ...  .. . . .... .....",
"...........@#@$@#.....''''''''''.. . ..... . ..... . ........ ..",
"...........++$$$@+..   .... . ..... ....... ....... . ....... ..",
" ...... ....+#$+@@. ........ ......................... ...  .. .",
" ....... ..%@++#+. .................. ... ............. . ..... ",
"..   ...%%%%++.+@ .... ... . ....   .. . ......++.++.... .......",
". ........&.%%...... ..++ ++ ... ...... .......+@+@@............",
"..........&.......... .+@+@@. . .............@#@$@#... .........",
".... ... . ....   ...@#@$@#... ..............++$$$@+. ....... ..",
".. .. . .. ... ......++$$$@+..................+#$+@@ ......... .",
"... ..   .. . .......&+#$+@@.................%@++#+............ ",
" ... . ..... .... .%.&@++#+......... .... %%%%++.+@.............",
"..... ............ .%&++.+@. ....... ... ...&%%%................",
"................... .&%%%.... ...  .. . ....&. ....   .... ... .",
"... .............. ..&.   .... . ..... ....... ... ........ . ..",
".. ....... ....... ... ........ ....... ...  .. . .......... ...",
"  ......... ...  .. . .................. . ..... .......... ....",
"............ . ..... .... ... ........... ......... ....... ... ",
"............. ............ . ....................... ...  .. . .",
"........................... ....... ... ............. . ..... .."};
