/* XPM */
static char * 4cb_xpm[] = {
"64 64 14 1",
" 	c #36A836",
".	c #55FF55",
"+	c #FAC600",
"@	c #FFDD5B",
"#	c #DB9232",
"$	c #3F2832",
"%	c #327345",
"&	c #193D3F",
"*	c #000000",
"=	c #FF99CC",
"-	c #FFFFFF",
";	c #FF0000",
">	c #FF3399",
",	c #FFFF00",
"  ... ...............   ........ ............... . .............",
".. . ............... ....... ...      ........... .......    ...",
" .. .......... ....  ....... ...   ..++.++... ...... ... ... ...",
"...   .....++ ++.. .. ...  .. . .....+@+@@... ....... . .  .. . ",
".. ........+@+@@.   .. . ..... ....@#@$@# ...      ...++ ++... .",
"  .......@#@$@#  ...... ... ..... .++$$$@+...   ... . +@+@@...  ",
". ....   ++$$$@+........... .   .. .+#$+@@ . .......@#@$@#... ..",
". ... ....+#$+@@. ... .....  .   ..%@++#+.. ..... ..++$$$@+. ...",
".. . .....@++#+... . ......   ..%%%%++.+@ .   .... . +#$+@@  ...",
"... ...%%&++ +@....    ... .......&.%% ... ........ %@++#+ .. ..",
" ..... ..& %%. ... .... . .... ...&.. ... .......%%%%++ +@.... .",
"....... .&.  .. . ...... ......   .  ...  .......  & %%.   .... ",
"...  ... . ..... ...............  . . . .. ...   . &  . ........",
"..... . . ......   ...............  .. .... . ....   . .. ... . ",
"...... ........ ...........******.... ....    ..  ... . .. . .. ",
" .. ... ...... ....... .***======******.  .... . . . ... ..   ..",
".... . .++.++  ....... *==============** . .... ..   .... . ....",
" .... ..+@+@@.. ...  **================** .   ...  ....... .....",
" ... .@#@$@#.... . .*====================*++.++. . .. ......... ",
".... .++$$$@+.... .*======================*@+@@  ..   ......... ",
".  .. .+#$+@@.....*================*===*==*$@#    ..... .  ..  .",
" .....%@++#+... . .*===*====*===*===***====*$@+.....    ..    ..",
"...%%%%++ +@ . .. .*===*****=====*==========*@@.... . .++.++ ...",
".....&.%%. ..   ..*==============*==========*+.... .. .+@+@@   .",
".... & .... . ....*=============*============*...   ..#@$@# . ..",
" .. ........ ....*===========================*    . ..+$$$@+  ..",
" . ..............*===***********==*********==*.  ...  +#$+@@. . ",
". .... ... ......*==*--*;;;;;*-*=*-*;;;;;*-*=*.... .. @++#+... .",
".   ... . .  ... *==*--*;;;;;*-*=*--*;;;***==*........++%+@ . ..",
"........ .... . .*===***;;;****===***;;**====*   .. ..%%.... ...",
"....... ....   ..*=====****=========***======*.. . ..... .......",
"....... ... ..   *========================*===*.. ...... .......",
"....  .. . .. ...*====*==================*====*. .++ ++.      ..",
". . ..... .. . ..*====*==================*====*. .+@+@@.   .....",
".. ...  ...  .. .*====**=========**=======*===*.@#@$@#. ........",
".... ... .++ ++.*======*====*****>>**=========*.++$$$@+.........",
" .... ... +@+@@ *==========*>>>>>>>>>**=======* &+#$+@@.........",
" ..... .@#@$@# .*===*=====*>>********>*=======*.&@++#+..........",
" ...... ++$$$@+..*===*===*>>**-*,*-*,*>*======*.&++.+@...... ...",
" ........+#$+@@..*====*==*>*,*-*,*-*,*>*=====*  &%%% ....... .. ",
". ... ..%@++#+  .*====*==*>*,*-*,***,*>*=====* .&.... ...  ..   ",
".. . %%%%++.+@.. .*======*>*,***,,,,,*>*====*  ....... . ....  .",
"... ...&.%%...... *======*>*,,,,,,,,,*>*====*... ....    ... ...",
".......&.....++.++*======*>*****,,,,*>>*====*... ... .... . ....",
".............+@+@@.*=====*>>>>>>****>>*=====*  .. . . .... .....",
"...........@#@$@#...*=====******>>>>>*=====* ..... . ........ ..",
"...........++$$$@+.. ***========*****=====* ....... . ....... ..",
" ...... ....+#$+@@. ....**==============**............ ...  .. .",
" ....... ..%@++#+. .......**************. ............. . ..... ",
"..   ...%%%%++.+@ .... ... . ....   .. . ......++.++.... .......",
". ........&.%%...... ..++ ++ ... ...... .......+@+@@............",
"..........&.......... .+@+@@. . .............@#@$@#... .........",
".... ... . ....   ...@#@$@#... ..............++$$$@+. ....... ..",
".. .. . .. ... ......++$$$@+..................+#$+@@ ......... .",
"... ..   .. . .......&+#$+@@.................%@++#+............ ",
" ... . ..... .... .%.&@++#+......... .... %%%%++.+@.............",
"..... ............ .%&++.+@. ....... ... ...&%%%................",
"................... .&%%%.... ...  .. . ....&. ....   .... ... .",
"... .............. ..&.   .... . ..... ....... ... ........ . ..",
".. ....... ....... ... ........ ....... ...  .. . .......... ...",
"  ......... ...  .. . .................. . ..... .......... ....",
"............ . ..... .... ... ........... ......... ....... ... ",
"............. ............ . ....................... ...  .. . .",
"........................... ....... ... ............. . ..... .."};
