/* XPM */
static char * 4exitopenened_xpm[] = {
"64 64 17 1",
" 	c #36A836",
".	c #55FF55",
"+	c #FAC600",
"@	c #FFDD5B",
"#	c #DB9232",
"$	c #3F2832",
"%	c #327345",
"&	c #193D3F",
"*	c #ABDAE5",
"=	c #D0F0F7",
"-	c #51A7B9",
";	c #5FCDE4",
">	c #1C3C43",
",	c #FFFFFF",
"'	c #9BADB7",
")	c #0C1F23",
"!	c #264046",
"  ... ...............   ........ ............... . .............",
".. . ............... ....... ...      ........... .......    ...",
" .. .......... ....  ....... ...   ..++.++... ...... ... ... ...",
"...   .....++ ++.. .. ...  .. . .....+@+@@... ....... . .  .. . ",
".. ........+@+@@.   .. . ..... ....@#@$@# ...      ...++ ++... .",
"  .......@#@$@#  ...... ... ..... .++$$$@+...   ... . +@+@@...  ",
". ....   ++$$$@+........... .   .. .+#$+@@ . .......@#@$@#... ..",
". ... ....+#$+@@. ... .....  .   ..%@++#+.. ..... ..++$$$@+. ...",
".. . .....@++#+... . ......   ..%%%%++.+@ .   .... . +#$+@@  ...",
"... ...%%&++ +@....    ... .......&.%% ... ........ %@++#+ .. ..",
" ..... ..& %%. ... .... . .... ...&.. ... .......%%%%++ +@.... .",
"....... .&.  .. . ...... ......   .  ...  .......  & %%.   .... ",
"...  ... . ..... ...............  . . . .. ...   . &  . ........",
"..... . . ......   ...............  .. .... . ....   . .. ... . ",
"...... ........ ..................... ....    ..  ... . .. . .. ",
" .. ... ...... ....... ....   ....... ..  .... . . . ... ..   ..",
".... . .++.++  ....... ... ..   ..  .. . . .... ..   .... . ....",
" .... ..+@+@@.. ..***===================================== .....",
" ... .@#@$@#..------;;;;;;;;;;;;;;;;;;;;;;;;;;;;;;;;;;;;;;=.... ",
".... .++$$$@--------;;;;;;;;;;;;;;;;;;;;;;;;;;;;;;;;;;;;;;;=... ",
".  .. .+#$----------;;;;;;;;;;;;;;;;;;;;;;;;;;>;;;>;>;>>;;;;=  .",
" .....%@++----------;;;;;;;;;;;;;;;;;;;;;;;;;;>;>>;>>;>>;;;;= ..",
"...%%%%++-----------;;;;;;;;;;;;;;;;;;;;;;;;;;;>;;>;>>>;;;;;;...",
".....&--------------;;;;;;;;;;;;;;;;;;;;;;,;;;;;;;;;;;;;;;;;;  .",
".... ---------------;;;;;;;;;;;;;;;;;;,;;-;,;;;;;;;;;;;;;;;;; ..",
" .. .---------------;;;,;;;,;;;;;;;;;-;,-;-;;;;;;----;;;;;;;; ..",
" . ..---------------;;-;,--;,;;;-;;;;;;-;--;,;;;;'''----;;;;; . ",
". ...---------------;;;-;-;-;;;----;;;-;-;;-;;;;'''''''--;;;;. .",
".   .---------------;;-;---;,;;)))--;;;-;;;;;;;'''''''''--;;; ..",
".....---------------;;;-;;;-;;;))))--;;;;;;;;;;''''''',,--;;;...",
".....---------------;;;;;;;;;;;)),))-;;;;;;;;;''''''',,,,-;;;...",
".....---------------;;;;;;;;;;;)))))--;;;;;;;;'''''',,,,,-;;;...",
".... ---------------;;;;;;;;;;;)))),--;;;;;;;;''''',,,,,--;;; ..",
". . .---------------;;;;;;;;;;;)))))--;;;;;;;;''''',,,,,--;;;...",
".. ..---------------;;;;;;;;;;;)))))--;;;;;;;;;''',,,,---;;;;...",
".... ---------------;;;;;;;;;;;)))))--;;;;;;;;;;;;----;;;;;;;...",
" ....---------------;;;;;;;;;;;),)))--;;;;;;;;;;;;;;;;;;;;;;;...",
" ....---------------;;;;;;;;;;;)))),--;;;;;;;;;;;;;;;;;;;;;;;...",
" ....---------------;;;;;;;;;;;)))))--;;;;;;;;;;;;;;;;;;;;;;;...",
" ..!!---------------;;;;;;;;;;;)))))--;;;;;;;;;;;;;;;;;;;;;;;.. ",
". !!!---------------;;;;;;;;;;;)))))--;;;;;;;;;;;;;;;;;;;;;..   ",
"..!!!---------------;;;;;;;;;;;),)))--;;;;;;;;;;;;;;;;;;;....  .",
"..!!!---------------;;;;;;;;;;;))),)--;;;;;;;;;;;;;..    ... ...",
"..!!!---------------;;;;;;;;;;;)))))--;;;;;;;;;. ... .... . ....",
"..!!!!--------------;;;;;;;;;;;;))))--;;;;;;.  .. . . .... .....",
"..!!!!!-------------;;;;;;;;;;;;;))--;;;;. . ..... . ........ ..",
"..!!!!!-------------;;;;;;;;;;;;----....... ....... . ....... ..",
" .!!!!!!!-----------;;;;;;;;;;;;;..................... ...  .. .",
" .!!!!!!!!!!--------;;;;;;;;;........ ... ............. . ..... ",
"..!!!!!!!!!!!!!!!!!!-;;;;. . ....   .. . ......++.++.... .......",
". .!!!!!!!!!!!!!!!!. ..++ ++ ... ...... .......+@+@@............",
"..........&.......... .+@+@@. . .............@#@$@#... .........",
".... ... . ....   ...@#@$@#... ..............++$$$@+. ....... ..",
".. .. . .. ... ......++$$$@+..................+#$+@@ ......... .",
"... ..   .. . .......&+#$+@@.................%@++#+............ ",
" ... . ..... .... .%.&@++#+......... .... %%%%++.+@.............",
"..... ............ .%&++.+@. ....... ... ...&%%%................",
"................... .&%%%.... ...  .. . ....&. ....   .... ... .",
"... .............. ..&.   .... . ..... ....... ... ........ . ..",
".. ....... ....... ... ........ ....... ...  .. . .......... ...",
"  ......... ...  .. . .................. . ..... .......... ....",
"............ . ..... .... ... ........... ......... ....... ... ",
"............. ............ . ....................... ...  .. . .",
"........................... ....... ... ............. . ..... .."};
